<svg width="18" height="24" viewBox="0 0 18 24" fill="none" xmlns="http://www.w3.org/2000/svg">
<path d="M8.72344 0.00415101C3.79734 0.151808 0 4.44934 0 9.37735V21.7487C0 22.4171 0.807656 22.7514 1.28016 22.2789L2.44828 21.4103C2.76047 21.1782 3.19828 21.2232 3.45656 21.5138L5.46984 23.7803C5.76281 24.0732 6.23766 24.0732 6.53063 23.7803L8.43937 21.631C8.73797 21.2949 9.2625 21.2949 9.56063 21.631L11.4694 23.7803C11.7623 24.0732 12.2372 24.0732 12.5302 23.7803L14.5434 21.5138C14.8017 21.2232 15.2395 21.1778 15.5517 21.4103L16.7198 22.2789C17.1923 22.7514 18 22.4167 18 21.7487V9C18 3.93746 13.8202 -0.148663 8.72344 0.00415101ZM6 10.5C5.17172 10.5 4.5 9.82829 4.5 9C4.5 8.17171 5.17172 7.49999 6 7.49999C6.82828 7.49999 7.5 8.17171 7.5 9C7.5 9.82829 6.82828 10.5 6 10.5ZM12 10.5C11.1717 10.5 10.5 9.82829 10.5 9C10.5 8.17171 11.1717 7.49999 12 7.49999C12.8283 7.49999 13.5 8.17171 13.5 9C13.5 9.82829 12.8283 10.5 12 10.5Z" fill="white"/>
</svg>
